<svg width="100" height="100" viewBox="0 0 100 100" fill="none" xmlns="http://www.w3.org/2000/svg">
<g clip-path="url(#clip0_1629_4495)">
<g filter="url(#filter0_d_1629_4495)">
<rect width="100" height="100" rx="12" fill="#10CBEE"/>
</g>
<path d="M29.9676 74.7387H26.9196L25.9476 77.6667H24.8436L27.8196 69.3867H29.2116L32.0676 77.6667H30.9516L29.9676 74.7387ZM27.2076 73.8987H29.6916L28.4916 70.2027L27.2076 73.8987ZM35.5257 71.1387C37.0497 71.1387 38.0217 72.0507 38.2137 73.4427H37.1337C36.9057 72.4227 36.3537 71.9307 35.5017 71.9307C34.5057 71.9307 33.6657 72.7107 33.6657 74.4267C33.6657 76.2747 34.4817 77.0427 35.4297 77.0427C36.2697 77.0427 36.8577 76.5627 37.0737 75.6387H38.1537C37.8417 77.1147 36.7857 77.8347 35.3697 77.8347C33.7617 77.8347 32.5377 76.8267 32.5377 74.4987C32.5377 72.3507 33.9297 71.1387 35.5257 71.1387ZM41.8952 71.1387C43.4192 71.1387 44.3912 72.0507 44.5832 73.4427H43.5032C43.2752 72.4227 42.7232 71.9307 41.8712 71.9307C40.8752 71.9307 40.0352 72.7107 40.0352 74.4267C40.0352 76.2747 40.8512 77.0427 41.7992 77.0427C42.6392 77.0427 43.2272 76.5627 43.4432 75.6387H44.5232C44.2112 77.1147 43.1552 77.8347 41.7392 77.8347C40.1312 77.8347 38.9072 76.8267 38.9072 74.4987C38.9072 72.3507 40.2992 71.1387 41.8952 71.1387ZM48.4328 71.1387C50.5928 71.1387 51.5888 72.6867 51.5888 74.4867C51.5888 76.2747 50.5928 77.8347 48.4328 77.8347C46.2728 77.8347 45.2768 76.2747 45.2768 74.4867C45.2768 72.6867 46.2728 71.1387 48.4328 71.1387ZM48.4328 77.0427C49.7168 77.0427 50.4608 75.9747 50.4608 74.4867C50.4608 72.9867 49.7168 71.9307 48.4328 71.9307C47.1488 71.9307 46.4048 72.9867 46.4048 74.4867C46.4048 75.9747 47.1488 77.0427 48.4328 77.0427ZM58.134 71.3067V77.6667H57.102V76.5867L56.706 77.3307C56.166 77.7267 55.698 77.8347 55.05 77.8347C53.73 77.8347 52.962 77.0907 52.818 76.2147C52.77 75.8907 52.758 75.6387 52.758 75.1227V71.3067H53.79V74.9307C53.79 75.1347 53.802 75.4827 53.838 75.8067C53.934 76.5267 54.45 77.0187 55.314 77.0187C56.31 77.0187 57.102 76.2747 57.102 74.1027V71.3067H58.134ZM65.3256 72.9987C65.3496 73.3227 65.3496 73.5747 65.3496 74.0907V77.6667H64.3176V74.1627C64.3176 73.8387 64.3176 73.5747 64.2936 73.2507C64.2336 72.5067 63.8256 71.9547 62.8416 71.9547C61.8456 71.9547 61.0056 72.6987 61.0056 74.8707V77.6667H59.9736V71.3067H61.0056V72.3987L61.4016 71.6667C61.9416 71.2467 62.4096 71.1387 63.0576 71.1387C64.4496 71.1387 65.2296 71.8827 65.3256 72.9987ZM68.3409 72.1467V75.8067C68.3409 76.0227 68.3409 76.1307 68.3529 76.2987C68.4009 76.9107 68.6529 77.0427 69.4569 76.9467V77.7027C69.1569 77.7507 68.8689 77.7627 68.5809 77.7627C67.7889 77.7627 67.3809 77.4387 67.3209 76.6467C67.3089 76.4787 67.3089 76.2147 67.3089 75.8547V72.1467H66.4569V71.3547H67.3089V69.8787H68.3409V71.3547H69.5289V72.1467H68.3409ZM72.7326 71.1387C74.1606 71.1387 74.9406 71.9547 75.0726 73.1187H73.9926C73.8486 72.3747 73.3926 71.9307 72.6486 71.9307C71.9286 71.9307 71.5926 72.3267 71.5926 72.8787C71.5926 73.5147 72.1206 73.7667 72.9846 73.9947C74.4486 74.3787 75.1446 74.9547 75.1446 76.0347C75.1446 77.2347 74.1246 77.8347 72.7806 77.8347C71.4726 77.8347 70.4766 77.2347 70.2846 75.7947H71.3646C71.5326 76.7187 72.1206 77.0427 72.8526 77.0427C73.5366 77.0427 74.0886 76.7307 74.0886 76.1187C74.0886 75.5067 73.6566 75.1827 72.5886 74.8947C71.4486 74.5827 70.5366 74.1147 70.5366 72.9987C70.5366 71.8347 71.4246 71.1387 72.7326 71.1387Z" fill="white"/>
<circle cx="50.2083" cy="34.7222" r="20.8333" fill="#C2FF3D"/>
</g>
<path d="M48.1875 45.375C45.777 45.375 43.4207 44.6603 41.4165 43.321C39.4123 41.9819 37.8502 40.0784 36.9277 37.8515C36.0053 35.6245 35.7639 33.174 36.2342 30.8098C36.7044 28.4457 37.8652 26.2741 39.5696 24.5696C41.2741 22.8652 43.4457 21.7044 45.8098 21.2342C48.174 20.7639 50.6245 21.0053 52.8515 21.9277C55.0784 22.8502 56.9819 24.4123 58.321 26.4165C59.6602 28.4207 60.375 30.777 60.375 33.1875C60.3684 36.4178 59.0822 39.5139 56.7981 41.798C54.5139 44.0823 51.4177 45.3684 48.1875 45.375ZM48.1875 22.875C46.1495 22.8824 44.1594 23.4935 42.4684 24.6312C40.7775 25.7688 39.4616 27.382 38.6868 29.267C37.912 31.152 37.7131 33.2243 38.1152 35.2223C38.5174 37.2203 39.5025 39.0543 40.9462 40.4926C42.3899 41.9311 44.2275 42.9096 46.2269 43.3045C48.2262 43.6994 50.2979 43.493 52.18 42.7114C54.0622 41.9298 55.6706 40.608 56.8021 38.9129C57.9336 37.2179 58.5375 35.2255 58.5375 33.1875C58.5359 31.8305 58.2668 30.4872 57.7456 29.2344C57.2244 27.9815 56.4614 26.8436 55.5001 25.8859C54.5389 24.9281 53.3982 24.1692 52.1435 23.6526C50.8887 23.1359 49.5445 22.8717 48.1875 22.875Z" fill="black"/>
<path d="M51.3875 47.45C48.3093 47.461 45.3404 46.3092 43.075 44.225C42.9025 44.0477 42.8059 43.8099 42.8059 43.5625C42.8059 43.315 42.9025 43.0774 43.075 42.9C43.1579 42.8088 43.2579 42.7349 43.3694 42.6824C43.4808 42.6299 43.6015 42.5999 43.7246 42.5942C43.8476 42.5883 43.9706 42.6068 44.0865 42.6487C44.2024 42.6904 44.309 42.7545 44.4 42.8375C45.5021 43.8579 46.8138 44.6253 48.2434 45.086C49.6729 45.5467 51.1859 45.6895 52.6764 45.5047C54.1669 45.3197 55.599 44.8113 56.8727 44.0152C58.1463 43.219 59.2307 42.1543 60.0499 40.8955C60.869 39.6367 61.4034 38.214 61.6155 36.727C61.8277 35.2402 61.7125 33.7249 61.2779 32.2872C60.8434 30.8494 60.1 29.5239 59.0999 28.4034C58.0998 27.2829 56.8669 26.3944 55.4875 25.8C55.3713 25.7526 55.266 25.682 55.1779 25.5925C55.0899 25.5031 55.0209 25.3966 54.9753 25.2797C54.9298 25.1628 54.9084 25.0378 54.9127 24.9123C54.9169 24.7869 54.9467 24.6636 55 24.55C55.0489 24.4349 55.1203 24.3308 55.2099 24.2437C55.2997 24.1566 55.4059 24.0884 55.5224 24.0429C55.6388 23.9975 55.7632 23.9758 55.8882 23.9792C56.0132 23.9826 56.1362 24.0109 56.25 24.0625C58.8173 25.1798 60.9215 27.147 62.209 29.6333C63.4965 32.1197 63.8887 34.9734 63.3195 37.7148C62.7504 40.4562 61.2548 42.918 59.084 44.6864C56.9133 46.4548 54.1999 47.4219 51.4 47.425L51.3875 47.45Z" fill="black"/>
<path d="M44.4375 39.9C44.3026 39.8967 44.1701 39.8643 44.0489 39.8049C43.9276 39.7456 43.8207 39.6609 43.7352 39.5564C43.6498 39.452 43.5879 39.3304 43.5538 39.1998C43.5196 39.0693 43.5141 38.9329 43.5375 38.8L44.175 35.1125L41.4875 32.4875C41.3607 32.3662 41.271 32.2112 41.229 32.0408C41.1869 31.8703 41.1942 31.6914 41.25 31.525C41.3037 31.3597 41.4022 31.2125 41.5346 31.0999C41.6671 30.9873 41.8282 30.9138 42 30.8875L45.75 30.35L47.4125 26.9875C47.5007 26.8427 47.6245 26.7229 47.7723 26.6398C47.92 26.5567 48.0868 26.5131 48.2563 26.5131C48.4258 26.5131 48.5925 26.5567 48.7403 26.6398C48.888 26.7229 49.0119 26.8427 49.1 26.9875L50.7 30.35L54.45 30.8875C54.6219 30.9138 54.783 30.9873 54.9154 31.0999C55.0479 31.2125 55.1464 31.3597 55.2 31.525C55.2559 31.6914 55.2632 31.8703 55.2212 32.0408C55.179 32.2112 55.0894 32.3662 54.9625 32.4875L52.2875 35.1125L52.925 38.8C52.9545 38.9738 52.935 39.1524 52.8688 39.3158C52.8025 39.479 52.6922 39.6208 52.55 39.725C52.4077 39.8265 52.2397 39.8862 52.0652 39.8972C51.8907 39.9082 51.7165 39.8703 51.5625 39.7875L48.2375 38.05L44.875 39.7875C44.7409 39.861 44.5905 39.8998 44.4375 39.9ZM48.1875 36.05C48.3405 36.0503 48.4909 36.0889 48.625 36.1625L50.7 37.25L50.3125 34.9375C50.2878 34.789 50.2987 34.6368 50.3444 34.4934C50.39 34.3499 50.469 34.2194 50.575 34.1125L52.2875 32.475L49.9625 32.1375C49.812 32.1138 49.6692 32.055 49.5454 31.966C49.4217 31.8769 49.3205 31.7602 49.25 31.625L48.2125 29.5125L47.1625 31.625C47.0937 31.7614 46.9931 31.8793 46.869 31.9685C46.745 32.0577 46.6013 32.1157 46.45 32.1375L44.125 32.475L45.8125 34.1125C45.9203 34.2182 46.0005 34.3487 46.0463 34.4924C46.092 34.6362 46.1019 34.789 46.075 34.9375L45.6875 37.25L47.7625 36.1625C47.8917 36.0878 48.0384 36.049 48.1875 36.05Z" fill="black"/>
<defs>
<filter id="filter0_d_1629_4495" x="-15" y="-15" width="130" height="130" filterUnits="userSpaceOnUse" color-interpolation-filters="sRGB">
<feFlood flood-opacity="0" result="BackgroundImageFix"/>
<feColorMatrix in="SourceAlpha" type="matrix" values="0 0 0 0 0 0 0 0 0 0 0 0 0 0 0 0 0 0 127 0" result="hardAlpha"/>
<feOffset/>
<feGaussianBlur stdDeviation="7.5"/>
<feComposite in2="hardAlpha" operator="out"/>
<feColorMatrix type="matrix" values="0 0 0 0 0 0 0 0 0 0 0 0 0 0 0 0 0 0 0.05 0"/>
<feBlend mode="normal" in2="BackgroundImageFix" result="effect1_dropShadow_1629_4495"/>
<feBlend mode="normal" in="SourceGraphic" in2="effect1_dropShadow_1629_4495" result="shape"/>
</filter>
<clipPath id="clip0_1629_4495">
<rect width="100" height="100" fill="white"/>
</clipPath>
</defs>
</svg>
