<svg width="100" height="100" viewBox="0 0 100 100" fill="none" xmlns="http://www.w3.org/2000/svg">
<g clip-path="url(#clip0_1629_4509)">
<g filter="url(#filter0_d_1629_4509)">
<rect width="100" height="100" rx="12" fill="#10CBEE"/>
</g>
<path d="M33.884 69.3867V77.6667H32.852V73.4067C32.852 72.3747 32.852 71.2227 32.876 70.3227C32.6 71.2227 32.216 72.3867 31.868 73.3947L30.404 77.6667H29.108L27.62 73.3707C27.284 72.3867 26.9 71.2347 26.636 70.3467C26.66 71.2467 26.66 72.3867 26.66 73.4067V77.6667H25.628V69.3867H27.332L29.78 76.7907L32.216 69.3867H33.884ZM40.9245 71.3067L38.3085 78.2067C37.7925 79.5507 37.1085 80.1867 36.0765 80.1867C35.8485 80.1867 35.7045 80.1867 35.5485 80.1627V79.3227C35.7045 79.3347 35.8125 79.3347 35.9205 79.3347C36.5565 79.3347 36.9765 79.0587 37.3005 78.2187L37.3845 77.9907L34.8525 71.3067H36.0165L37.9125 76.8987L39.7965 71.3067H40.9245ZM48.0947 69.2187C50.6147 69.2187 52.0067 70.9947 52.0067 73.5267C52.0067 76.0467 50.6147 77.8347 48.0947 77.8347C45.5747 77.8347 44.1827 76.0467 44.1827 73.5267C44.1827 70.9947 45.5747 69.2187 48.0947 69.2187ZM48.0947 77.0187C49.8347 77.0187 50.8547 75.6747 50.8547 73.5267C50.8547 71.3667 49.8347 70.0347 48.0947 70.0347C46.3547 70.0347 45.3347 71.3667 45.3347 73.5267C45.3347 75.6747 46.3547 77.0187 48.0947 77.0187ZM54.4884 70.0827C54.4644 70.2507 54.4524 70.5507 54.4524 70.7307V71.3547H55.7604V72.1467H54.4524V77.6667H53.4204V72.1467H52.7364V71.3547H53.4204V70.8267C53.4204 70.5867 53.4324 70.2747 53.4564 70.0587C53.5644 69.1347 54.1884 68.6187 55.1364 68.6187C55.4004 68.6187 55.6524 68.6427 55.8684 68.6787V69.5307C55.0884 69.3867 54.5724 69.5667 54.4884 70.0827ZM57.9868 70.0827C57.9628 70.2507 57.9508 70.5507 57.9508 70.7307V71.3547H59.2588V72.1467H57.9508V77.6667H56.9188V72.1467H56.2348V71.3547H56.9188V70.8267C56.9188 70.5867 56.9308 70.2747 56.9548 70.0587C57.0628 69.1347 57.6868 68.6187 58.6348 68.6187C58.8988 68.6187 59.1508 68.6427 59.3668 68.6787V69.5307C58.5868 69.3867 58.0708 69.5667 57.9868 70.0827ZM65.5893 74.3067C65.5893 74.4027 65.5893 74.5707 65.5653 74.7987H60.9573C61.0533 76.4787 61.8453 77.0427 62.7813 77.0427C63.6093 77.0427 64.2813 76.5267 64.4253 75.6147H65.5053C65.2533 77.1507 64.0413 77.8347 62.7333 77.8347C61.0773 77.8347 59.8413 76.7547 59.8413 74.5107C59.8413 72.4467 61.1253 71.1387 62.8653 71.1387C64.6173 71.1387 65.5893 72.4467 65.5893 74.3067ZM62.8413 71.9307C61.8333 71.9307 61.0893 72.6507 60.9693 74.0067H64.5453C64.4493 72.6867 63.8853 71.9307 62.8413 71.9307ZM69.4693 71.1627C69.6373 71.1627 69.7813 71.1867 69.9013 71.2467V72.0267C68.8213 71.9547 68.0053 72.5907 68.0053 74.0427V77.6667H66.9733V71.3067H68.0053V72.3027L68.5813 71.4507C68.8453 71.2707 69.1693 71.1627 69.4693 71.1627ZM72.8002 71.1387C74.2282 71.1387 75.0082 71.9547 75.1402 73.1187H74.0602C73.9162 72.3747 73.4602 71.9307 72.7162 71.9307C71.9962 71.9307 71.6602 72.3267 71.6602 72.8787C71.6602 73.5147 72.1882 73.7667 73.0522 73.9947C74.5162 74.3787 75.2122 74.9547 75.2122 76.0347C75.2122 77.2347 74.1922 77.8347 72.8482 77.8347C71.5402 77.8347 70.5442 77.2347 70.3522 75.7947H71.4322C71.6002 76.7187 72.1882 77.0427 72.9202 77.0427C73.6042 77.0427 74.1562 76.7307 74.1562 76.1187C74.1562 75.5067 73.7242 75.1827 72.6562 74.8947C71.5162 74.5827 70.6042 74.1147 70.6042 72.9987C70.6042 71.8347 71.4922 71.1387 72.8002 71.1387Z" fill="black"/>
<path d="M33.884 69.3867V77.6667H32.852V73.4067C32.852 72.3747 32.852 71.2227 32.876 70.3227C32.6 71.2227 32.216 72.3867 31.868 73.3947L30.404 77.6667H29.108L27.62 73.3707C27.284 72.3867 26.9 71.2347 26.636 70.3467C26.66 71.2467 26.66 72.3867 26.66 73.4067V77.6667H25.628V69.3867H27.332L29.78 76.7907L32.216 69.3867H33.884ZM40.9245 71.3067L38.3085 78.2067C37.7925 79.5507 37.1085 80.1867 36.0765 80.1867C35.8485 80.1867 35.7045 80.1867 35.5485 80.1627V79.3227C35.7045 79.3347 35.8125 79.3347 35.9205 79.3347C36.5565 79.3347 36.9765 79.0587 37.3005 78.2187L37.3845 77.9907L34.8525 71.3067H36.0165L37.9125 76.8987L39.7965 71.3067H40.9245ZM48.0947 69.2187C50.6147 69.2187 52.0067 70.9947 52.0067 73.5267C52.0067 76.0467 50.6147 77.8347 48.0947 77.8347C45.5747 77.8347 44.1827 76.0467 44.1827 73.5267C44.1827 70.9947 45.5747 69.2187 48.0947 69.2187ZM48.0947 77.0187C49.8347 77.0187 50.8547 75.6747 50.8547 73.5267C50.8547 71.3667 49.8347 70.0347 48.0947 70.0347C46.3547 70.0347 45.3347 71.3667 45.3347 73.5267C45.3347 75.6747 46.3547 77.0187 48.0947 77.0187ZM54.4884 70.0827C54.4644 70.2507 54.4524 70.5507 54.4524 70.7307V71.3547H55.7604V72.1467H54.4524V77.6667H53.4204V72.1467H52.7364V71.3547H53.4204V70.8267C53.4204 70.5867 53.4324 70.2747 53.4564 70.0587C53.5644 69.1347 54.1884 68.6187 55.1364 68.6187C55.4004 68.6187 55.6524 68.6427 55.8684 68.6787V69.5307C55.0884 69.3867 54.5724 69.5667 54.4884 70.0827ZM57.9868 70.0827C57.9628 70.2507 57.9508 70.5507 57.9508 70.7307V71.3547H59.2588V72.1467H57.9508V77.6667H56.9188V72.1467H56.2348V71.3547H56.9188V70.8267C56.9188 70.5867 56.9308 70.2747 56.9548 70.0587C57.0628 69.1347 57.6868 68.6187 58.6348 68.6187C58.8988 68.6187 59.1508 68.6427 59.3668 68.6787V69.5307C58.5868 69.3867 58.0708 69.5667 57.9868 70.0827ZM65.5893 74.3067C65.5893 74.4027 65.5893 74.5707 65.5653 74.7987H60.9573C61.0533 76.4787 61.8453 77.0427 62.7813 77.0427C63.6093 77.0427 64.2813 76.5267 64.4253 75.6147H65.5053C65.2533 77.1507 64.0413 77.8347 62.7333 77.8347C61.0773 77.8347 59.8413 76.7547 59.8413 74.5107C59.8413 72.4467 61.1253 71.1387 62.8653 71.1387C64.6173 71.1387 65.5893 72.4467 65.5893 74.3067ZM62.8413 71.9307C61.8333 71.9307 61.0893 72.6507 60.9693 74.0067H64.5453C64.4493 72.6867 63.8853 71.9307 62.8413 71.9307ZM69.4693 71.1627C69.6373 71.1627 69.7813 71.1867 69.9013 71.2467V72.0267C68.8213 71.9547 68.0053 72.5907 68.0053 74.0427V77.6667H66.9733V71.3067H68.0053V72.3027L68.5813 71.4507C68.8453 71.2707 69.1693 71.1627 69.4693 71.1627ZM72.8002 71.1387C74.2282 71.1387 75.0082 71.9547 75.1402 73.1187H74.0602C73.9162 72.3747 73.4602 71.9307 72.7162 71.9307C71.9962 71.9307 71.6602 72.3267 71.6602 72.8787C71.6602 73.5147 72.1882 73.7667 73.0522 73.9947C74.5162 74.3787 75.2122 74.9547 75.2122 76.0347C75.2122 77.2347 74.1922 77.8347 72.8482 77.8347C71.5402 77.8347 70.5442 77.2347 70.3522 75.7947H71.4322C71.6002 76.7187 72.1882 77.0427 72.9202 77.0427C73.6042 77.0427 74.1562 76.7307 74.1562 76.1187C74.1562 75.5067 73.7242 75.1827 72.6562 74.8947C71.5162 74.5827 70.6042 74.1147 70.6042 72.9987C70.6042 71.8347 71.4922 71.1387 72.8002 71.1387Z" fill="white"/>
<circle cx="50.2083" cy="34.7222" r="20.8333" fill="#C2FF3D"/>
</g>
<path d="M61.3942 45H41.6058C40.7202 45 40 44.184 40 43.1805V38.4902C40 37.9535 40.2076 37.4462 40.5709 37.1007C41.236 36.4648 41.5701 35.873 41.5701 35.34C41.5701 34.8033 41.2327 34.2115 40.5709 33.5793C40.2076 33.2338 40 32.7265 40 32.1899V26.8195C40 25.816 40.7202 25 41.6058 25H61.3942C62.2798 25 63 25.816 63 26.8195V32.1899C63 32.7265 62.7924 33.2338 62.4291 33.5793C61.7673 34.2115 61.4299 34.807 61.4299 35.34C61.4299 35.873 61.7673 36.4685 62.4291 37.1007C62.7924 37.4462 63 37.9535 63 38.4902V43.1805C62.9968 44.184 62.2766 45 61.3942 45ZM61.3942 26.8195H41.6058V32.1899C42.6471 33.186 43.1759 34.2446 43.1759 35.34C43.1759 36.4354 42.6471 37.494 41.6058 38.4902V43.1805H61.3942V38.4902C60.3529 37.494 59.8241 36.4354 59.8241 35.34C59.8241 34.2446 60.3529 33.186 61.3942 32.1899V26.8195Z" fill="#333333"/>
<path d="M53.5048 32.2744H56.5801C57.0246 32.2744 57.3814 32.6824 57.3814 33.1823C57.3814 33.6859 57.0213 34.0903 56.5801 34.0903H53.5048C53.0604 34.0903 52.7035 33.6859 52.7035 33.1823C52.7035 32.6824 53.0604 32.2744 53.5048 32.2744ZM53.5048 36.5163H56.5801C57.0246 36.5163 57.3814 36.9243 57.3814 37.4242C57.3814 37.9278 57.0213 38.3321 56.5801 38.3321H53.5048C53.0604 38.3321 52.7035 37.9241 52.7035 37.4242C52.7035 36.9243 53.0604 36.5163 53.5048 36.5163ZM48.1814 25.9116L49.7904 26.066V43.3275L48.1814 43.1732V25.9116Z" fill="#333333"/>
<defs>
<filter id="filter0_d_1629_4509" x="-15" y="-15" width="130" height="130" filterUnits="userSpaceOnUse" color-interpolation-filters="sRGB">
<feFlood flood-opacity="0" result="BackgroundImageFix"/>
<feColorMatrix in="SourceAlpha" type="matrix" values="0 0 0 0 0 0 0 0 0 0 0 0 0 0 0 0 0 0 127 0" result="hardAlpha"/>
<feOffset/>
<feGaussianBlur stdDeviation="7.5"/>
<feComposite in2="hardAlpha" operator="out"/>
<feColorMatrix type="matrix" values="0 0 0 0 0 0 0 0 0 0 0 0 0 0 0 0 0 0 0.05 0"/>
<feBlend mode="normal" in2="BackgroundImageFix" result="effect1_dropShadow_1629_4509"/>
<feBlend mode="normal" in="SourceGraphic" in2="effect1_dropShadow_1629_4509" result="shape"/>
</filter>
<clipPath id="clip0_1629_4509">
<rect width="100" height="100" fill="white"/>
</clipPath>
</defs>
</svg>
