<svg width="156" height="156" viewBox="0 0 156 156" fill="none" xmlns="http://www.w3.org/2000/svg">
<path d="M77.83 155.66C120.814 155.66 155.66 120.814 155.66 77.83C155.66 34.8457 120.814 0 77.83 0C34.8457 0 0 34.8457 0 77.83C0 120.814 34.8457 155.66 77.83 155.66Z" fill="#00BADD"/>
<path d="M77.83 150.71C118.08 150.71 150.71 118.08 150.71 77.83C150.71 37.5794 118.08 4.94995 77.83 4.94995C37.5794 4.94995 4.94995 37.5794 4.94995 77.83C4.94995 118.08 37.5794 150.71 77.83 150.71Z" fill="#33133C"/>
<path d="M131.97 63.83L133.23 67.72C133.33 68.03 133.62 68.24 133.95 68.24H138.04C138.77 68.24 139.07 69.17 138.48 69.6L135.17 72C134.91 72.19 134.8 72.53 134.9 72.84L136.16 76.73C136.39 77.42 135.59 78 135 77.57L131.69 75.17C131.43 74.98 131.07 74.98 130.8 75.17L127.49 77.57C126.9 78 126.1 77.42 126.33 76.73L127.59 72.84C127.69 72.53 127.59 72.19 127.32 72L124.01 69.6C123.42 69.17 123.72 68.24 124.45 68.24H128.54C128.87 68.24 129.16 68.03 129.26 67.72L130.52 63.83C130.75 63.14 131.73 63.14 131.95 63.83H131.97Z" fill="#00BADD"/>
<path d="M24.85 63.83L26.11 67.72C26.21 68.03 26.5 68.24 26.83 68.24H30.92C31.65 68.24 31.95 69.17 31.36 69.6L28.05 72C27.79 72.19 27.68 72.53 27.78 72.84L29.04 76.73C29.27 77.42 28.47 78 27.88 77.57L24.57 75.17C24.31 74.98 23.95 74.98 23.68 75.17L20.37 77.57C19.78 78 18.98 77.42 19.21 76.73L20.47 72.84C20.57 72.53 20.47 72.19 20.2 72L16.89 69.6C16.3 69.17 16.6 68.24 17.33 68.24H21.42C21.75 68.24 22.04 68.03 22.14 67.72L23.4 63.83C23.63 63.14 24.61 63.14 24.83 63.83H24.85Z" fill="#00BADD"/>
<path d="M107.15 76.59C107.14 76.42 107.13 76.24 107.11 76.07C106.21 60.67 93.44 48.48 77.83 48.48C62.22 48.48 49.44 60.68 48.54 76.09C48.54 76.26 48.52 76.42 48.51 76.59C48.49 77 48.48 77.41 48.48 77.83C48.48 94.04 61.62 107.18 77.83 107.18C94.04 107.18 107.18 94.04 107.18 77.83C107.18 77.41 107.17 77 107.15 76.59ZM90.34 86.24C87.63 90.25 83.04 92.9 77.83 92.9C74.5 92.9 71.41 91.82 68.92 89.99L62.76 98.39V77.83C62.76 69.51 69.51 62.76 77.83 62.76C81.16 62.76 84.24 63.84 86.74 65.68L92.9 57.27V77.83C92.9 78.75 92.82 79.65 92.66 80.52C92.28 82.6 91.48 84.54 90.34 86.24Z" fill="#00BADD"/>
<path d="M131.82 88.7199L121.54 81.5099C119.68 104.01 100.82 121.69 77.83 121.69C54.84 121.69 36.26 104.26 34.17 81.9899L24.58 88.7199L13.48 80.9299C15.1 115.06 43.29 142.25 77.83 142.25C112.37 142.25 140.26 115.35 142.15 81.4699L131.82 88.7199Z" fill="#00BADD"/>
<path d="M21.4357 49.1229L20.729 50.5546L23.1568 51.7529L24.5416 49.3656L27.4314 47.8502L31.0626 49.6425L31.6788 52.7336L29.8045 56.5308L26.9762 57.9218L24.8804 56.8873L26.5805 53.4428L28.1575 54.2212L28.8642 52.7894L26.3742 51.5604L24.9792 53.9685L22.0999 55.5149L18.5309 53.7533L17.9145 50.6105L19.6863 47.0208L22.5764 45.5571L24.6722 46.5915L23.0335 49.9115L21.4357 49.1229Z" fill="white"/>
<path d="M24.1516 39.642L28.5248 34.1025L30.5045 35.6654L28.5114 38.19L30.473 39.7385L32.1219 37.6499L34.0834 39.1984L32.4345 41.2871L35.0135 43.3231L37.0639 40.7259L39.0254 42.2745L34.5948 47.8866L24.1516 39.642Z" fill="white"/>
<path d="M32.3298 30.2398L35.2298 27.7207L42.3014 35.8614L44.8868 33.6155L46.5257 35.5022L41.0404 40.2672L32.3298 30.2398Z" fill="white"/>
<path d="M42.0217 22.5733L45.3402 20.6388L50.7709 29.9547L53.7296 28.2299L54.9882 30.389L48.711 34.0483L42.0217 22.5733Z" fill="white"/>
<path d="M52.9043 16.8421L59.5613 14.4978L60.3991 16.8768L57.3653 17.9452L58.1954 20.3024L60.7054 19.4185L61.5355 21.7757L59.0255 22.6597L60.1169 25.759L63.2381 24.6598L64.0682 27.0171L57.3239 29.3921L52.9043 16.8421Z" fill="white"/>
<path d="M70.8801 14.934L69.3185 15.1274L69.6825 18.0668L71.2441 17.8734L70.8801 14.934ZM71.5513 20.3536L69.9897 20.547L70.6438 25.8288L66.8317 26.301L65.1992 13.1193L71.6981 12.3144L74.4861 13.9278L74.9099 17.3495L73.1889 18.8917L75.2256 19.8985L75.8797 25.1804L72.2054 25.6354L71.5513 20.3536Z" fill="white"/>
<path d="M95.2076 16.9823L93.6666 16.5644L92.9581 19.1775L95.5674 20.0767L97.6108 22.6207L96.5512 26.5291L93.6365 27.7288L89.5495 26.6207L87.64 24.113L88.2516 21.8573L91.959 22.8625L91.4988 24.5599L93.0398 24.9777L93.7665 22.2977L91.1349 21.3924L89.063 18.8646L90.1046 15.0232L93.0699 13.8133L96.9336 14.8609L98.9264 17.4151L98.3148 19.6708L94.7414 18.702L95.2076 16.9823Z" fill="white"/>
<path d="M104.323 17.4877L111.542 21.2091L110.397 23.4305L108.485 22.4444L103.544 32.0292L100.171 30.2904L105.111 20.7057L103.178 19.709L104.323 17.4877Z" fill="white"/>
<path d="M117.489 28.5273L112.217 34.9168L113.43 35.9183L118.703 29.5288L117.489 28.5273ZM118.063 25.7603L121.24 28.3819L121.983 31.5159L115.989 38.7799L112.893 38.7148L109.609 36.0048L108.886 32.9181L114.88 25.6541L118.063 25.7603Z" fill="white"/>
<path d="M129.068 40.6941L128.126 39.434L125.754 41.2079L126.696 42.468L129.068 40.6941ZM124.695 43.9647L123.753 42.7045L119.49 45.8919L117.19 42.8157L127.827 34.8611L131.749 40.1055L131.73 43.3266L128.969 45.3914L126.777 44.6618L126.912 46.9297L122.65 50.1171L120.433 47.1521L124.695 43.9647Z" fill="white"/>
<path d="M136.365 47.593L139.295 54.0137L137.001 55.0609L135.666 52.1347L133.392 53.1723L134.497 55.5932L132.223 56.6308L131.118 54.2098L128.129 55.574L129.503 58.5844L127.229 59.622L124.261 53.1171L136.365 47.593Z" fill="white"/>
<path d="M31.3701 96.8592L31.1024 96.1909L27.7791 97.5221L28.0468 98.1905L29.3279 97.6773L29.9266 99.1719L28.4135 99.778L27.2339 99.0655L26.6018 97.4874L26.9372 96.0927L30.7153 94.5792L31.8967 95.2694L32.5623 96.9311L32.1916 98.2645L30.9198 98.774L30.3212 97.2794L31.3701 96.8592Z" fill="white"/>
<path d="M33.652 102.001L31.4557 102.926L31.8032 103.556L33.7292 102.141L33.652 102.001ZM30.9153 104.183L30.4519 103.342L29.456 103.731L28.6741 102.312L34.2022 100.43L35.3607 102.532L30.8364 106.236L30.0497 104.808L30.9153 104.183Z" fill="white"/>
<path d="M35.4098 108.018L33.144 109.663L32.2275 108.401L36.8725 105.028L37.6891 106.153L36.096 108.657L38.3295 107.035L39.2342 108.281L34.5893 111.654L33.7903 110.553L35.4098 108.018Z" fill="white"/>
<path d="M41.5931 112.569L41.1261 112.075L38.5241 114.534L38.9911 115.028L41.5931 112.569ZM40.7846 110.141L42.7421 112.212L42.9077 113.611L39.9496 116.406L38.6114 116.198L36.6127 114.083L40.7846 110.141Z" fill="white"/>
<path d="M45.3854 114.711L46.6493 115.787L42.9284 120.158L41.6644 119.082L45.3854 114.711Z" fill="white"/>
<path d="M49.9824 119.605L49.4198 119.223L47.4091 122.185L47.9717 122.567L49.9824 119.605ZM48.6695 117.409L51.0275 119.009L51.4907 120.339L49.2048 123.707L47.8533 123.792L45.4456 122.158L48.6695 117.409Z" fill="white"/>
<path d="M59.2083 124.465L57.9014 127.798L58.5345 128.046L59.8414 124.713L59.2083 124.465ZM59.0719 123.252L60.729 123.901L61.4558 125.089L59.9701 128.878L58.6896 129.267L56.9765 128.596L56.2647 127.425L57.7505 123.636L59.0719 123.252Z" fill="white"/>
<path d="M64.0833 125.017L67.1805 125.821L66.909 126.866L65.3991 126.474L65.1276 127.52L66.3568 127.839L66.0853 128.884L64.8561 128.565L64.2276 130.985L62.6403 130.572L64.0833 125.017Z" fill="white"/>
<path d="M69.2052 126.21L72.371 126.677L72.2134 127.745L70.6701 127.517L70.5125 128.586L71.7689 128.771L71.6113 129.84L70.3549 129.654L69.9902 132.128L68.3677 131.888L69.2052 126.21Z" fill="white"/>
<path d="M74.4294 126.842L77.477 126.964L77.4334 128.053L76.0445 127.997L76.0014 129.076L77.1505 129.122L77.1073 130.201L75.9582 130.155L75.9015 131.574L77.3304 131.631L77.2872 132.711L74.1997 132.587L74.4294 126.842Z" fill="white"/>
<path d="M82.1321 127.846L81.4541 127.898L81.5521 129.174L82.2301 129.122L82.1321 127.846ZM82.3127 130.199L81.6347 130.251L81.8108 132.544L80.1556 132.671L79.7163 126.948L82.538 126.732L83.709 127.484L83.8231 128.97L83.0491 129.601L83.908 130.076L84.0841 132.37L82.4888 132.492L82.3127 130.199Z" fill="white"/>
<path d="M88.4466 126.909L87.7709 127.049L88.0078 128.195L89.1893 128.032L90.4737 128.614L90.828 130.328L89.9384 131.359L88.1463 131.73L86.9206 131.136L86.7162 130.147L88.3418 129.811L88.4957 130.555L89.1714 130.415L88.9284 129.24L87.7371 129.405L86.4449 128.834L86.0967 127.15L87.0039 126.105L88.698 125.755L89.9649 126.35L90.1694 127.339L88.6025 127.663L88.4466 126.909Z" fill="white"/>
<path d="M99.5549 126.71L99.6645 126.661L98.2643 122.512L99.7623 121.844L101.331 127.429L99.048 128.447L95.8529 123.586L97.3509 122.919L99.5549 126.71Z" fill="white"/>
<path d="M101.511 120.885L104.139 119.337L104.692 120.276L103.495 120.981L104.043 121.912L105.034 121.328L105.582 122.258L104.592 122.842L105.312 124.066L106.544 123.34L107.093 124.27L104.431 125.839L101.511 120.885Z" fill="white"/>
<path d="M108.516 117.561L107.975 117.973L108.75 118.991L109.291 118.579L108.516 117.561ZM109.945 119.439L109.404 119.851L110.798 121.681L109.477 122.686L106 118.119L108.252 116.405L109.644 116.401L110.546 117.586L110.239 118.537L111.219 118.47L112.612 120.3L111.339 121.269L109.945 119.439Z" fill="white"/>
<path d="M111.032 114.033L112.236 112.89L116.188 117.053L114.984 118.196L111.032 114.033Z" fill="white"/>
<path d="M114.055 111.037L116.15 108.619L116.967 109.326L115.945 110.505L116.761 111.212L117.593 110.252L118.409 110.959L117.578 111.919L119.467 113.556L118.394 114.796L114.055 111.037Z" fill="white"/>
<path d="M117.466 106.863L118.425 105.508L123.109 108.826L122.15 110.18L117.466 106.863Z" fill="white"/>
<path d="M119.83 103.334L121.34 100.684L122.287 101.223L121.599 102.431L122.537 102.966L123.107 101.967L124.045 102.502L123.475 103.501L124.709 104.204L125.417 102.961L126.356 103.496L124.826 106.181L119.83 103.334Z" fill="white"/>
<path d="M124.241 96.9985L123.977 97.625L127.275 99.0169L127.539 98.3904L124.241 96.9985ZM122.344 98.7161L123.452 96.0903L124.665 95.3758L128.415 96.9582L128.764 98.2667L127.632 100.948L122.344 98.7161Z" fill="white"/>
</svg>
