<svg width="100" height="100" viewBox="0 0 100 100" fill="none" xmlns="http://www.w3.org/2000/svg">
<g clip-path="url(#clip0_1629_4503)">
<g filter="url(#filter0_d_1629_4503)">
<rect width="100" height="100" rx="12" fill="#10CBEE"/>
</g>
<path d="M30.4187 73.2627C31.5107 73.5147 32.1227 74.0907 32.1227 75.2307C32.1227 76.7427 31.0787 77.4387 29.9867 77.6067C29.5787 77.6667 29.3147 77.6667 28.9307 77.6667H26.2667V69.3867H28.7027C29.0987 69.3867 29.3867 69.3867 29.7827 69.4347C31.0907 69.6147 31.8227 70.2747 31.8227 71.4507C31.8227 72.4467 31.2707 72.9747 30.4187 73.2627ZM27.2987 70.2267V72.9507H28.8947C29.1107 72.9507 29.3147 72.9387 29.5547 72.9027C30.4067 72.7707 30.7187 72.2667 30.7187 71.5347C30.7187 70.7187 30.1907 70.3347 29.4467 70.2507C29.2307 70.2267 28.9787 70.2267 28.7867 70.2267H27.2987ZM29.6627 76.8027C30.4547 76.7307 31.0187 76.2387 31.0187 75.3387C31.0187 74.3187 30.4667 73.9467 29.6747 73.8387C29.3987 73.8027 29.2067 73.7907 29.0147 73.7907H27.2987V76.8267H29.0867C29.2787 76.8267 29.5067 76.8147 29.6627 76.8027ZM38.7761 71.3067V77.6667H37.7441V76.5867L37.3481 77.3307C36.8081 77.7267 36.3401 77.8347 35.6921 77.8347C34.3721 77.8347 33.6041 77.0907 33.4601 76.2147C33.4121 75.8907 33.4001 75.6387 33.4001 75.1227V71.3067H34.4321V74.9307C34.4321 75.1347 34.4441 75.4827 34.4801 75.8067C34.5761 76.5267 35.0921 77.0187 35.9561 77.0187C36.9521 77.0187 37.7441 76.2747 37.7441 74.1027V71.3067H38.7761ZM45.8117 71.3067L43.1957 78.2067C42.6797 79.5507 41.9957 80.1867 40.9637 80.1867C40.7357 80.1867 40.5917 80.1867 40.4357 80.1627V79.3227C40.5917 79.3347 40.6997 79.3347 40.8077 79.3347C41.4437 79.3347 41.8637 79.0587 42.1877 78.2187L42.2717 77.9907L39.7397 71.3067H40.9037L42.7997 76.8987L44.6837 71.3067H45.8117ZM52.9819 69.2187C55.5019 69.2187 56.8939 70.9947 56.8939 73.5267C56.8939 76.0467 55.5019 77.8347 52.9819 77.8347C50.4619 77.8347 49.0699 76.0467 49.0699 73.5267C49.0699 70.9947 50.4619 69.2187 52.9819 69.2187ZM52.9819 77.0187C54.7219 77.0187 55.7419 75.6747 55.7419 73.5267C55.7419 71.3667 54.7219 70.0347 52.9819 70.0347C51.2419 70.0347 50.2219 71.3667 50.2219 73.5267C50.2219 75.6747 51.2419 77.0187 52.9819 77.0187ZM59.3755 70.0827C59.3515 70.2507 59.3395 70.5507 59.3395 70.7307V71.3547H60.6475V72.1467H59.3395V77.6667H58.3075V72.1467H57.6235V71.3547H58.3075V70.8267C58.3075 70.5867 58.3195 70.2747 58.3435 70.0587C58.4515 69.1347 59.0755 68.6187 60.0235 68.6187C60.2875 68.6187 60.5395 68.6427 60.7555 68.6787V69.5307C59.9755 69.3867 59.4595 69.5667 59.3755 70.0827ZM62.874 70.0827C62.85 70.2507 62.838 70.5507 62.838 70.7307V71.3547H64.146V72.1467H62.838V77.6667H61.806V72.1467H61.122V71.3547H61.806V70.8267C61.806 70.5867 61.818 70.2747 61.842 70.0587C61.95 69.1347 62.574 68.6187 63.522 68.6187C63.786 68.6187 64.038 68.6427 64.254 68.6787V69.5307C63.474 69.3867 62.958 69.5667 62.874 70.0827ZM70.4765 74.3067C70.4765 74.4027 70.4765 74.5707 70.4525 74.7987H65.8445C65.9405 76.4787 66.7325 77.0427 67.6685 77.0427C68.4965 77.0427 69.1685 76.5267 69.3125 75.6147H70.3925C70.1405 77.1507 68.9285 77.8347 67.6205 77.8347C65.9645 77.8347 64.7285 76.7547 64.7285 74.5107C64.7285 72.4467 66.0125 71.1387 67.7525 71.1387C69.5045 71.1387 70.4765 72.4467 70.4765 74.3067ZM67.7285 71.9307C66.7205 71.9307 65.9765 72.6507 65.8565 74.0067H69.4325C69.3365 72.6867 68.7725 71.9307 67.7285 71.9307ZM74.3564 71.1627C74.5244 71.1627 74.6684 71.1867 74.7884 71.2467V72.0267C73.7084 71.9547 72.8924 72.5907 72.8924 74.0427V77.6667H71.8604V71.3067H72.8924V72.3027L73.4684 71.4507C73.7324 71.2707 74.0564 71.1627 74.3564 71.1627Z" fill="black"/>
<path d="M30.4187 73.2627C31.5107 73.5147 32.1227 74.0907 32.1227 75.2307C32.1227 76.7427 31.0787 77.4387 29.9867 77.6067C29.5787 77.6667 29.3147 77.6667 28.9307 77.6667H26.2667V69.3867H28.7027C29.0987 69.3867 29.3867 69.3867 29.7827 69.4347C31.0907 69.6147 31.8227 70.2747 31.8227 71.4507C31.8227 72.4467 31.2707 72.9747 30.4187 73.2627ZM27.2987 70.2267V72.9507H28.8947C29.1107 72.9507 29.3147 72.9387 29.5547 72.9027C30.4067 72.7707 30.7187 72.2667 30.7187 71.5347C30.7187 70.7187 30.1907 70.3347 29.4467 70.2507C29.2307 70.2267 28.9787 70.2267 28.7867 70.2267H27.2987ZM29.6627 76.8027C30.4547 76.7307 31.0187 76.2387 31.0187 75.3387C31.0187 74.3187 30.4667 73.9467 29.6747 73.8387C29.3987 73.8027 29.2067 73.7907 29.0147 73.7907H27.2987V76.8267H29.0867C29.2787 76.8267 29.5067 76.8147 29.6627 76.8027ZM38.7761 71.3067V77.6667H37.7441V76.5867L37.3481 77.3307C36.8081 77.7267 36.3401 77.8347 35.6921 77.8347C34.3721 77.8347 33.6041 77.0907 33.4601 76.2147C33.4121 75.8907 33.4001 75.6387 33.4001 75.1227V71.3067H34.4321V74.9307C34.4321 75.1347 34.4441 75.4827 34.4801 75.8067C34.5761 76.5267 35.0921 77.0187 35.9561 77.0187C36.9521 77.0187 37.7441 76.2747 37.7441 74.1027V71.3067H38.7761ZM45.8117 71.3067L43.1957 78.2067C42.6797 79.5507 41.9957 80.1867 40.9637 80.1867C40.7357 80.1867 40.5917 80.1867 40.4357 80.1627V79.3227C40.5917 79.3347 40.6997 79.3347 40.8077 79.3347C41.4437 79.3347 41.8637 79.0587 42.1877 78.2187L42.2717 77.9907L39.7397 71.3067H40.9037L42.7997 76.8987L44.6837 71.3067H45.8117ZM52.9819 69.2187C55.5019 69.2187 56.8939 70.9947 56.8939 73.5267C56.8939 76.0467 55.5019 77.8347 52.9819 77.8347C50.4619 77.8347 49.0699 76.0467 49.0699 73.5267C49.0699 70.9947 50.4619 69.2187 52.9819 69.2187ZM52.9819 77.0187C54.7219 77.0187 55.7419 75.6747 55.7419 73.5267C55.7419 71.3667 54.7219 70.0347 52.9819 70.0347C51.2419 70.0347 50.2219 71.3667 50.2219 73.5267C50.2219 75.6747 51.2419 77.0187 52.9819 77.0187ZM59.3755 70.0827C59.3515 70.2507 59.3395 70.5507 59.3395 70.7307V71.3547H60.6475V72.1467H59.3395V77.6667H58.3075V72.1467H57.6235V71.3547H58.3075V70.8267C58.3075 70.5867 58.3195 70.2747 58.3435 70.0587C58.4515 69.1347 59.0755 68.6187 60.0235 68.6187C60.2875 68.6187 60.5395 68.6427 60.7555 68.6787V69.5307C59.9755 69.3867 59.4595 69.5667 59.3755 70.0827ZM62.874 70.0827C62.85 70.2507 62.838 70.5507 62.838 70.7307V71.3547H64.146V72.1467H62.838V77.6667H61.806V72.1467H61.122V71.3547H61.806V70.8267C61.806 70.5867 61.818 70.2747 61.842 70.0587C61.95 69.1347 62.574 68.6187 63.522 68.6187C63.786 68.6187 64.038 68.6427 64.254 68.6787V69.5307C63.474 69.3867 62.958 69.5667 62.874 70.0827ZM70.4765 74.3067C70.4765 74.4027 70.4765 74.5707 70.4525 74.7987H65.8445C65.9405 76.4787 66.7325 77.0427 67.6685 77.0427C68.4965 77.0427 69.1685 76.5267 69.3125 75.6147H70.3925C70.1405 77.1507 68.9285 77.8347 67.6205 77.8347C65.9645 77.8347 64.7285 76.7547 64.7285 74.5107C64.7285 72.4467 66.0125 71.1387 67.7525 71.1387C69.5045 71.1387 70.4765 72.4467 70.4765 74.3067ZM67.7285 71.9307C66.7205 71.9307 65.9765 72.6507 65.8565 74.0067H69.4325C69.3365 72.6867 68.7725 71.9307 67.7285 71.9307ZM74.3564 71.1627C74.5244 71.1627 74.6684 71.1867 74.7884 71.2467V72.0267C73.7084 71.9547 72.8924 72.5907 72.8924 74.0427V77.6667H71.8604V71.3067H72.8924V72.3027L73.4684 71.4507C73.7324 71.2707 74.0564 71.1627 74.3564 71.1627Z" fill="white"/>
<circle cx="50.2083" cy="34.7222" r="20.8333" fill="#C2FF3D"/>
</g>
<path fill-rule="evenodd" clip-rule="evenodd" d="M45.2584 38.2731C45.2584 37.4429 44.5857 36.7704 43.7564 36.7704C43.273 36.7704 42.7366 36.7704 42.2532 36.7704C41.4239 36.7704 40.7512 37.4429 40.7512 38.2731C40.7512 39.9399 40.7512 42.6154 40.7512 44.2821C40.7512 45.1124 41.4239 45.7848 42.2532 45.7848C42.7366 45.7848 43.273 45.7848 43.7564 45.7848C44.5857 45.7848 45.2584 45.1124 45.2584 44.2821C45.2584 42.6154 45.2584 39.9399 45.2584 38.2731Z" fill="#C2FF3D"/>
<path fill-rule="evenodd" clip-rule="evenodd" d="M45.2584 39.024C45.2584 38.6259 45.4169 38.2435 45.6986 37.9618C45.9803 37.6801 46.3627 37.5216 46.7608 37.5216H50.5168C50.5214 37.5216 52.0193 37.5239 52.0193 39.024C52.0193 40.5264 50.5168 40.5264 50.5168 40.5264H53.6509C54.049 40.5264 54.4314 40.3679 54.7131 40.0862C55.5477 39.2517 57.2777 37.5216 57.2777 37.5216C59.0603 35.739 61.9449 37.726 58.9626 40.709C58.9626 40.709 56.5024 43.4096 55.471 44.5431C55.1863 44.8556 54.7829 45.0337 54.36 45.0337C52.8103 45.0337 48.9198 45.0337 46.7608 45.0337C46.3627 45.0337 45.9803 44.8752 45.6986 44.5935C45.4169 44.3118 45.2584 43.9294 45.2584 43.5313C45.2584 42.2219 45.2584 40.3334 45.2584 39.024Z" fill="#C2FF3D"/>
<path fill-rule="evenodd" clip-rule="evenodd" d="M58.7798 26.2536C58.7798 25.855 58.6215 25.4726 58.3395 25.1908C58.0581 24.9095 57.6761 24.751 57.2774 24.751C54.3986 24.751 48.137 24.751 45.2581 24.751C44.8594 24.751 44.4775 24.9095 44.1961 25.1908C43.9141 25.4726 43.7557 25.855 43.7557 26.2536C43.7557 27.9208 43.7557 30.5957 43.7557 32.2629C43.7557 32.6614 43.9141 33.0438 44.1961 33.3256C44.4775 33.607 44.8594 33.7654 45.2581 33.7654C48.137 33.7654 54.3986 33.7654 57.2774 33.7654C57.6761 33.7654 58.0581 33.607 58.3395 33.3256C58.6215 33.0438 58.7798 32.6614 58.7798 32.2629C58.7798 30.5957 58.7798 27.9208 58.7798 26.2536Z" fill="#C2FF3D"/>
<path fill-rule="evenodd" clip-rule="evenodd" d="M45.6558 45.4957C45.9901 45.6835 46.3702 45.7849 46.7608 45.7849C48.9198 45.7849 52.8103 45.7849 54.36 45.7849C54.9948 45.7849 55.5995 45.5175 56.0262 45.0487L59.5065 41.2266C60.9841 39.7422 61.1787 38.4096 60.8819 37.5419C60.3681 36.041 58.2828 35.4543 56.7466 36.9906C56.7466 36.9906 55.0165 38.7206 54.182 39.5552C54.0407 39.6964 53.8499 39.7753 53.6509 39.7753H52.6713C52.7344 39.5574 52.7705 39.3088 52.7705 39.0241C52.7705 36.7742 50.5236 36.7705 50.5176 36.7705H46.7608C46.3702 36.7705 45.9901 36.8719 45.6558 37.0597C45.2554 36.4339 44.5538 36.0192 43.756 36.0192H42.2536C41.0089 36.0192 40 37.0281 40 38.2729V44.2825C40 45.5272 41.0089 46.5361 42.2536 46.5361H43.756C44.5538 46.5361 45.2554 46.1214 45.6558 45.4957ZM44.5072 38.2729V44.2825C44.5072 44.6971 44.1707 45.0337 43.756 45.0337H42.2536C41.8389 45.0337 41.5024 44.6971 41.5024 44.2825V38.2729C41.5024 37.8582 41.8389 37.5217 42.2536 37.5217H43.756C44.1707 37.5217 44.5072 37.8582 44.5072 38.2729ZM46.0096 39.0241V43.5313C46.0096 43.7304 46.0885 43.9219 46.2297 44.0624C46.3702 44.2036 46.5618 44.2825 46.7608 44.2825H54.36C54.5718 44.2825 54.7732 44.1931 54.9159 44.0368C55.9473 42.904 58.4067 40.2027 58.4187 40.1899L58.4315 40.1779C59.33 39.2787 59.6402 38.5531 59.4607 38.028C59.2571 37.4338 58.4172 37.445 57.8088 38.0528C57.8088 38.0528 56.0788 39.7828 55.2442 40.6174C54.8212 41.0403 54.2481 41.2777 53.6509 41.2777H48.2632C47.8486 41.2777 47.512 40.9411 47.512 40.5265C47.512 40.1118 47.8486 39.7753 48.2632 39.7753H50.5168C50.5168 39.7753 51.268 39.7753 51.268 39.0241C51.268 38.2736 50.5183 38.2729 50.5168 38.2729H46.7608C46.5618 38.2729 46.3702 38.3517 46.2297 38.493C46.0885 38.6334 46.0096 38.825 46.0096 39.0241ZM59.5313 32.2632V26.2536C59.5313 25.6557 59.2939 25.0825 58.871 24.6603C58.4488 24.2374 57.8756 24 57.2777 24C54.3991 24 48.137 24 45.2584 24C44.6605 24 44.0873 24.2374 43.6651 24.6603C43.2422 25.0825 43.0048 25.6557 43.0048 26.2536V32.2632C43.0048 32.8612 43.2422 33.4344 43.6651 33.8565C44.0873 34.2795 44.6605 34.5168 45.2584 34.5168C48.137 34.5168 54.3991 34.5168 57.2777 34.5168C57.8756 34.5168 58.4488 34.2795 58.871 33.8565C59.2939 33.4344 59.5313 32.8612 59.5313 32.2632ZM58.0289 26.2536V32.2632C58.0289 32.4623 57.95 32.6539 57.8088 32.7943C57.6683 32.9356 57.4767 33.0144 57.2777 33.0144H45.2584C45.0594 33.0144 44.8678 32.9356 44.7273 32.7943C44.5861 32.6539 44.5072 32.4623 44.5072 32.2632V26.2536C44.5072 26.0545 44.5861 25.863 44.7273 25.7225C44.8678 25.5813 45.0594 25.5024 45.2584 25.5024H57.2777C57.4767 25.5024 57.6683 25.5813 57.8088 25.7225C57.95 25.863 58.0289 26.0545 58.0289 26.2536ZM55.7753 32.2632H56.5265C56.9411 32.2632 57.2777 31.9267 57.2777 31.512C57.2777 31.0974 56.9411 30.7608 56.5265 30.7608H55.7753C55.3606 30.7608 55.0241 31.0974 55.0241 31.512C55.0241 31.9267 55.3606 32.2632 55.7753 32.2632ZM51.268 27.0048C50.0241 27.0048 49.0144 28.0144 49.0144 29.2584C49.0144 30.5024 50.0241 31.512 51.268 31.512C52.512 31.512 53.5217 30.5024 53.5217 29.2584C53.5217 28.0144 52.512 27.0048 51.268 27.0048ZM51.268 28.5072C51.6827 28.5072 52.0192 28.8438 52.0192 29.2584C52.0192 29.6731 51.6827 30.0096 51.268 30.0096C50.8534 30.0096 50.5168 29.6731 50.5168 29.2584C50.5168 28.8438 50.8534 28.5072 51.268 28.5072ZM46.0096 27.756H46.7608C47.1755 27.756 47.512 27.4195 47.512 27.0048C47.512 26.5901 47.1755 26.2536 46.7608 26.2536H46.0096C45.595 26.2536 45.2584 26.5901 45.2584 27.0048C45.2584 27.4195 45.595 27.756 46.0096 27.756Z" fill="black"/>
<defs>
<filter id="filter0_d_1629_4503" x="-15" y="-15" width="130" height="130" filterUnits="userSpaceOnUse" color-interpolation-filters="sRGB">
<feFlood flood-opacity="0" result="BackgroundImageFix"/>
<feColorMatrix in="SourceAlpha" type="matrix" values="0 0 0 0 0 0 0 0 0 0 0 0 0 0 0 0 0 0 127 0" result="hardAlpha"/>
<feOffset/>
<feGaussianBlur stdDeviation="7.5"/>
<feComposite in2="hardAlpha" operator="out"/>
<feColorMatrix type="matrix" values="0 0 0 0 0 0 0 0 0 0 0 0 0 0 0 0 0 0 0.05 0"/>
<feBlend mode="normal" in2="BackgroundImageFix" result="effect1_dropShadow_1629_4503"/>
<feBlend mode="normal" in="SourceGraphic" in2="effect1_dropShadow_1629_4503" result="shape"/>
</filter>
<clipPath id="clip0_1629_4503">
<rect width="100" height="100" fill="white"/>
</clipPath>
</defs>
</svg>
